<svg xmlns="http://www.w3.org/2000/svg" id="Layer_1" version="1" viewBox="0 0 3138.1 2353.6"><style/><path d="M633.5 1753.9l5.2-3" class="st0"/><path d="M643.8 1748L2558.2 642.6" class="st1"/><path d="M2560.7 641.2l5.2-3M656.5 1785.7l5.2-3" class="st0"/><path d="M666.7 1779.8L2499.9 721.4" class="st2"/><path d="M2502.4 719.9l5.2-3M614.4 1856.4l5.2-3" class="st0"/><path d="M624.6 1850.5L2583 719.8" class="st3"/><path d="M2585.5 718.4l5.2-3M583.2 1176.9l5.2-3" class="st0"/><path d="M593.4 1171L2443.2 103" class="st4"/><path d="M2445.7 101.5l5.2-3M409.6 1522.1l5.2-3" class="st0"/><path d="M419.8 1516.2L2492.7 319.5" class="st5"/><path d="M2495.2 318l5.2-3M460.4 1501.3l5.2-3" class="st0"/><path d="M470.7 1495.4L2428 365.3" class="st6"/><path d="M2430.5 363.9l5.2-3M667.3 1671.2l5.2-3" class="st0"/><path d="M677.5 1665.3L2472.1 629.2" class="st7"/><path d="M2474.6 627.7l5.2-3" class="st0"/><g><path d="M541.5 1632.2l5.2-3" class="st0"/><path d="M551.8 1626.3L2585.9 451.9" class="st8"/><path d="M2588.4 450.4l5.2-3" class="st0"/></g><g><path d="M568.9 1474.7l5.2-3" class="st0"/><path d="M579.1 1468.8l1886.3-1089" class="st9"/><path d="M2467.9 378.3l5.2-3" class="st0"/></g><g><path d="M476.5 1447.1l5.2-3" class="st0"/><path d="M486.7 1441.1L2600.4 220.8" class="st10"/><path d="M2602.9 219.3l5.2-3" class="st0"/></g><g><path d="M868.7 162.8l5.2 3" class="st0"/><path d="M878.9 168.7L2764 1257" class="st11"/><path d="M2766.5 1258.5l5.2 3" class="st0"/></g><g><path d="M955.9 39.9l5.2 3" class="st0"/><path d="M966.1 45.8l1581 912.8" class="st12"/><path d="M2549.6 960l5.2 3" class="st0"/></g><g><path d="M552.1 484.7l5.2 3" class="st0"/><path d="M562.4 490.6l1598.9 923.1" class="st13"/><path d="M2163.8 1415.1l5.2 3" class="st0"/></g><g><path d="M179 693.8l5.2 3" class="st0"/><path d="M189.3 699.7l2313.3 1335.6" class="st14"/><path d="M2505.1 2036.8l5.2 3" class="st0"/></g><g><path d="M533.3 1086.3l5.2 3" class="st0"/><path d="M543.5 1092.2l2054.1 1186" class="st15"/><path d="M2600.1 2279.6l5.2 3" class="st0"/></g><g><path d="M597.6 224.7l5.2 3" class="st0"/><path d="M607.9 230.6l2207.9 1274.7" class="st16"/><path d="M2818.3 1506.8l5.2 3" class="st0"/></g><path d="M1814.9 135.5v2049.2M1586.9 258.5v1617.2M1010.8 879.6v846.1" class="st17"/></svg>